<svg width="24" height="24" viewBox="0 0 24 24" fill="none" xmlns="http://www.w3.org/2000/svg">
<path d="M18.8889 4.92893C20.4847 6.55986 21.4723 8.69612 21.7027 10.9697H17.2565C17.0558 9.89431 16.5439 8.89612 15.7756 8.11091C14.7664 7.07946 13.3976 6.5 11.9704 6.5C10.5431 6.5 9.17433 7.07946 8.16513 8.11091C7.39685 8.89612 6.88486 9.89431 6.68419 10.9697H2.23802C2.46838 8.69612 3.45601 6.55985 5.05176 4.92893C6.88668 3.05357 9.37537 2 11.9704 2C14.5653 2 17.054 3.05357 18.8889 4.92893Z" fill="#FD6767"/>
<path d="M2.23802 13.0303H6.68419C6.88486 14.1057 7.39685 15.1039 8.16513 15.8891C9.17433 16.9205 10.5431 17.5 11.9704 17.5C13.3976 17.5 14.7664 16.9205 15.7756 15.8891C16.5439 15.1039 17.0558 14.1057 17.2565 13.0303H21.7027C21.4723 15.3039 20.4847 17.4401 18.8889 19.0711C17.054 20.9464 14.5653 22 11.9704 22C9.37537 22 6.88668 20.9464 5.05176 19.0711C3.45601 17.4401 2.46838 15.3039 2.23802 13.0303Z" fill="#D9D9D9"/>
<path d="M12 15.2727C13.7521 15.2727 15.1725 13.821 15.1725 12.0303C15.1725 10.2396 13.7521 8.78788 12 8.78788C10.2479 8.78788 8.82749 10.2396 8.82749 12.0303C8.82749 13.821 10.2479 15.2727 12 15.2727Z" fill="#D9D9D9"/>
</svg>
