<svg width="24" height="24" viewBox="0 0 24 24" fill="none" xmlns="http://www.w3.org/2000/svg">
<path d="M18.8889 4.92893C20.4847 6.55986 21.4723 8.69612 21.7027 10.9697H17.2565C17.0558 9.89431 16.5439 8.89612 15.7756 8.11091C14.7664 7.07946 13.3976 6.5 11.9704 6.5C10.5431 6.5 9.17433 7.07946 8.16513 8.11091C7.39685 8.89612 6.88486 9.89431 6.68419 10.9697H2.23802C2.46838 8.69612 3.45601 6.55985 5.05176 4.92893C6.88668 3.05357 9.37537 2 11.9704 2C14.5653 2 17.054 3.05357 18.8889 4.92893Z" fill="#FD6767"/>
<path d="M2.23802 13.0303H6.68419C6.88486 14.1057 7.39685 15.1039 8.16513 15.8891C9.17433 16.9205 10.5431 17.5 11.9704 17.5C13.3976 17.5 14.7664 16.9205 15.7756 15.8891C16.5439 15.1039 17.0558 14.1057 17.2565 13.0303H21.7027C21.4723 15.3039 20.4847 17.4401 18.8889 19.0711C17.054 20.9464 14.5653 22 11.9704 22C9.37537 22 6.88668 20.9464 5.05176 19.0711C3.45601 17.4401 2.46838 15.3039 2.23802 13.0303Z" fill="#D9D9D9"/>
<path d="M12 15.2727C13.7521 15.2727 15.1725 13.821 15.1725 12.0303C15.1725 10.2396 13.7521 8.78788 12 8.78788C10.2479 8.78788 8.82749 10.2396 8.82749 12.0303C8.82749 13.821 10.2479 15.2727 12 15.2727Z" fill="#D9D9D9"/>
<path fill-rule="evenodd" clip-rule="evenodd" d="M17.1422 2.32209C16.9503 2.38252 16.9538 2.65269 17.1457 2.70957C17.7038 2.87309 18.1481 3.30323 18.3223 3.85779C18.3827 4.04976 18.6528 4.0462 18.7097 3.85424C18.8732 3.29612 19.3033 2.85176 19.8578 2.67758C20.0498 2.61714 20.0462 2.34697 19.8543 2.29009C19.2962 2.12657 18.8519 1.69643 18.6777 1.14187C18.6457 1.04233 18.5462 0.985456 18.4467 1.00323C18.372 1.01745 18.3116 1.07077 18.2903 1.14542C18.1268 1.70354 17.6967 2.1479 17.1422 2.32209Z" fill="#FBD548"/>
<path fill-rule="evenodd" clip-rule="evenodd" d="M20.1422 4.32209C19.9503 4.38252 19.9538 4.65269 20.1457 4.70957C20.7038 4.87309 21.1481 5.30323 21.3223 5.85779C21.3827 6.04976 21.6528 6.0462 21.7097 5.85424C21.8732 5.29612 22.3033 4.85176 22.8578 4.67758C23.0498 4.61714 23.0462 4.34697 22.8543 4.29009C22.2962 4.12657 21.8519 3.69643 21.6777 3.14187C21.6457 3.04233 21.5462 2.98546 21.4467 3.00323C21.372 3.01745 21.3116 3.07077 21.2903 3.14542C21.1268 3.70354 20.6967 4.1479 20.1422 4.32209Z" fill="#FBD548"/>
<path fill-rule="evenodd" clip-rule="evenodd" d="M17.1422 6.32209C16.9503 6.38252 16.9538 6.65269 17.1457 6.70957C17.7038 6.87309 18.1481 7.30323 18.3223 7.85779C18.3827 8.04976 18.6528 8.0462 18.7097 7.85424C18.8732 7.29612 19.3033 6.85176 19.8578 6.67758C20.0498 6.61714 20.0462 6.34697 19.8543 6.29009C19.2962 6.12657 18.8519 5.69643 18.6777 5.14187C18.6457 5.04233 18.5462 4.98546 18.4467 5.00323C18.372 5.01745 18.3116 5.07077 18.2903 5.14542C18.1268 5.70354 17.6967 6.1479 17.1422 6.32209Z" fill="#FBD548"/>
</svg>
