<svg width="43" height="43" viewBox="0 0 43 43" fill="none" xmlns="http://www.w3.org/2000/svg">
<circle cx="21.5" cy="21.5" r="21.5" fill="white"/>
<path fill-rule="evenodd" clip-rule="evenodd" d="M10.6162 12.7284C9.78442 12.9903 9.79982 14.1609 10.6316 14.4073C13.0498 15.1158 14.9751 16.9796 15.7299 19.3824C15.9917 20.2141 17.1623 20.1987 17.4088 19.367C18.1173 16.9487 19.981 15.0234 22.3838 14.2687C23.2156 14.0068 23.2002 12.8362 22.3684 12.5898C19.9502 11.8813 18.0249 10.0175 17.2701 7.6147C17.1315 7.18342 16.7002 6.93698 16.269 7.014C15.9455 7.07561 15.6837 7.30665 15.5912 7.6301C14.8827 10.0483 13.019 11.9737 10.6162 12.7284Z" fill="#E3E3E3"/>
<path fill-rule="evenodd" clip-rule="evenodd" d="M22.6162 20.2284C21.7844 20.4903 21.7998 21.6609 22.6316 21.9073C25.0498 22.6158 26.9751 24.4796 27.7299 26.8824C27.9917 27.7141 29.1623 27.6987 29.4088 26.867C30.1173 24.4487 31.981 22.5234 34.3838 21.7687C35.2156 21.5068 35.2002 20.3362 34.3684 20.0898C31.9502 19.3813 30.0249 17.5175 29.2701 15.1147C29.1315 14.6834 28.7002 14.437 28.269 14.514C27.9455 14.5756 27.6837 14.8066 27.5912 15.1301C26.8827 17.5483 25.019 19.4737 22.6162 20.2284Z" fill="#E3E3E3"/>
<path fill-rule="evenodd" clip-rule="evenodd" d="M10.6162 27.7284C9.78442 27.9903 9.79982 29.1609 10.6316 29.4073C13.0498 30.1158 14.9751 31.9796 15.7299 34.3824C15.9917 35.2141 17.1623 35.1987 17.4088 34.367C18.1173 31.9487 19.981 30.0234 22.3838 29.2687C23.2156 29.0068 23.2002 27.8362 22.3684 27.5898C19.9502 26.8813 18.0249 25.0175 17.2701 22.6147C17.1315 22.1834 16.7002 21.937 16.269 22.014C15.9455 22.0756 15.6837 22.3066 15.5912 22.6301C14.8827 25.0483 13.019 26.9737 10.6162 27.7284Z" fill="#E3E3E3"/>
</svg>
