<svg width="24" height="24" viewBox="0 0 24 24" fill="none" xmlns="http://www.w3.org/2000/svg">
<path fill-rule="evenodd" clip-rule="evenodd" d="M7.4326 20.1082C6.90187 19.5852 6.90187 18.7381 7.4326 18.215L13.7198 12.0173L7.4326 5.8196C7.29906 5.69696 7.19195 5.54907 7.11766 5.38475C7.04338 5.22043 7.00343 5.04305 7.00021 4.86319C6.99699 4.68333 7.03056 4.50467 7.09892 4.33787C7.16728 4.17107 7.26903 4.01955 7.39809 3.89234C7.52716 3.76514 7.6809 3.66486 7.85014 3.59749C8.01938 3.53012 8.20066 3.49703 8.38316 3.50021C8.56565 3.50338 8.74563 3.54275 8.91235 3.61596C9.07908 3.68918 9.22913 3.79474 9.35357 3.92635L16.6025 11.0707C16.857 11.3218 17 11.6623 17 12.0173C17 12.3723 16.857 12.7127 16.6025 12.9639L9.35356 20.1082C9.09872 20.3591 8.75326 20.5 8.39308 20.5C8.0329 20.5 7.68744 20.3591 7.4326 20.1082Z" fill="#17181D"/>
</svg>
