<svg width="24" height="24" viewBox="0 0 24 24" fill="none" xmlns="http://www.w3.org/2000/svg">
<path fill-rule="evenodd" clip-rule="evenodd" d="M16.5674 3.89176C17.0981 4.41483 17.0981 5.26194 16.5674 5.78501L10.2802 11.9827L16.5674 18.1804C16.7009 18.303 16.808 18.4509 16.8823 18.6152C16.9566 18.7796 16.9966 18.9569 16.9998 19.1368C17.003 19.3167 16.9694 19.4953 16.9011 19.6621C16.8327 19.8289 16.731 19.9805 16.6019 20.1077C16.4728 20.2349 16.3191 20.3351 16.1499 20.4025C15.9806 20.4699 15.7993 20.503 15.6168 20.4998C15.4343 20.4966 15.2544 20.4573 15.0876 20.384C14.9209 20.3108 14.7709 20.2053 14.6464 20.0736L7.3975 12.9293C7.14297 12.6782 7 12.3377 7 11.9827C7 11.6277 7.14297 11.2873 7.3975 11.0361L14.6464 3.89176C14.9013 3.6409 15.2467 3.5 15.6069 3.5C15.9671 3.5 16.3126 3.6409 16.5674 3.89176Z" fill="#17181D"/>
</svg>
