<svg width="24" height="24" viewBox="0 0 24 24" fill="none" xmlns="http://www.w3.org/2000/svg">
<mask id="mask0_476_93" style="mask-type:alpha" maskUnits="userSpaceOnUse" x="0" y="0" width="24" height="24">
<rect width="24" height="24" fill="#D9D9D9"/>
</mask>
<g mask="url(#mask0_476_93)">
<path d="M11.5418 2.20947C11.826 1.25757 13.174 1.25757 13.4582 2.20947L15.1381 7.83619C15.2671 8.26835 15.6695 8.56066 16.1203 8.54982L21.9908 8.40874C22.9839 8.38488 23.4005 9.66692 22.583 10.2314L17.7508 13.5678C17.3796 13.824 17.226 14.297 17.3756 14.7225L19.3238 20.262C19.6534 21.1991 18.5628 21.9915 17.7734 21.3884L13.1071 17.8237C12.7487 17.55 12.2513 17.55 11.8929 17.8237L7.22658 21.3884C6.43716 21.9915 5.34658 21.1991 5.67617 20.262L7.62442 14.7225C7.77405 14.297 7.62037 13.824 7.24924 13.5678L2.41702 10.2314C1.59954 9.66692 2.0161 8.38488 3.00923 8.40874L8.87967 8.54982C9.33055 8.56066 9.73288 8.26835 9.8619 7.83619L11.5418 2.20947Z" fill="#FBD548"/>
</g>
</svg>
